<?xml version="1.0" standalone="no"?>
<!DOCTYPE svg PUBLIC "-//W3C//DTD SVG 20010904//EN"
 "http://www.w3.org/TR/2001/REC-SVG-20010904/DTD/svg10.dtd">
<svg version="1.0" xmlns="http://www.w3.org/2000/svg"
 width="1024.000000pt" height="42.000000pt" viewBox="0 0 1024.000000 42.000000"
 preserveAspectRatio="xMidYMid meet">

<g transform="translate(0.000000,42.000000) scale(0.100000,-0.100000)"
fill="#000000" stroke="none">
<path d="M91 178 c1 -29 4 -41 6 -26 3 20 11 28 31 31 l27 4 -27 2 c-40 2 -36
29 5 34 31 4 31 4 -5 5 l-38 2 1 -52z"/>
<path d="M537 223 c-15 -14 -5 -33 24 -49 23 -12 28 -19 20 -27 -9 -9 -17 -8
-32 2 -18 10 -20 10 -17 -1 3 -7 18 -13 34 -13 42 0 44 29 3 50 -23 13 -28 20
-20 28 9 9 17 8 34 -2 20 -13 21 -13 8 2 -14 17 -42 22 -54 10z"/>
<path d="M612 180 c0 -51 0 -53 9 -22 12 39 31 37 41 -4 6 -27 6 -27 5 6 -2
28 -7 36 -24 38 -12 2 -24 11 -26 20 -3 9 -5 -8 -5 -38z"/>
<path d="M763 180 c0 -30 2 -43 4 -28 2 16 2 40 0 56 -2 15 -4 2 -4 -28z"/>
<path d="M793 180 c0 -30 2 -43 4 -28 2 16 2 40 0 56 -2 15 -4 2 -4 -28z"/>
<path d="M900 216 c0 -8 -10 -16 -22 -18 -18 -2 -23 -10 -23 -33 0 -26 4 -30
28 -31 26 -1 27 1 27 47 0 27 -2 49 -5 49 -3 0 -5 -6 -5 -14z m-7 -39 c3 -8 1
-20 -4 -28 -11 -19 -34 3 -26 25 8 20 23 21 30 3z"/>
<path d="M1432 213 c-4 -10 -5 -34 -1 -53 6 -35 6 -35 9 -5 1 17 3 40 4 53 3
27 0 28 -12 5z"/>
<path d="M1520 205 c-5 -14 -12 -38 -16 -53 -4 -23 -3 -24 6 -9 13 21 50 23
50 2 0 -8 4 -15 9 -15 5 0 2 23 -7 50 -18 56 -28 62 -42 25z m30 -27 c0 -5 -6
-8 -14 -8 -9 0 -12 7 -9 21 4 16 8 17 14 7 5 -7 9 -16 9 -20z"/>
<path d="M2159 203 c-10 -28 -4 -79 11 -88 5 -3 4 8 -1 25 -8 21 -8 39 0 60
12 37 4 40 -10 3z"/>
<path d="M2206 183 c-18 -53 -20 -66 -5 -40 12 21 49 23 49 2 0 -8 4 -15 9
-15 5 0 2 23 -7 50 -9 28 -19 50 -23 50 -4 0 -14 -21 -23 -47z m34 1 c0 -8 -6
-14 -14 -14 -9 0 -12 7 -9 20 6 22 23 18 23 -6z"/>
<path d="M2395 170 c0 -32 3 -53 7 -47 4 7 8 28 8 47 0 19 -4 40 -8 47 -4 6
-7 -15 -7 -47z"/>
<path d="M2539 209 c-2 -27 3 -64 9 -71 4 -4 6 11 5 33 -1 39 -12 67 -14 38z"/>
<path d="M173 165 c0 -22 2 -30 4 -17 2 12 2 30 0 40 -3 9 -5 -1 -4 -23z"/>
<path d="M199 183 c-16 -18 1 -49 25 -47 10 1 15 -3 13 -10 -2 -6 -11 -10 -20
-10 -9 1 -14 -2 -11 -7 9 -14 31 -10 38 7 3 9 6 30 6 48 0 24 -5 32 -19 33
-11 1 -25 -5 -32 -14z m38 -9 c8 -21 -13 -42 -28 -27 -13 13 -5 43 11 43 6 0
13 -7 17 -16z"/>
<path d="M273 168 c1 -26 7 -34 25 -36 20 -3 22 1 20 35 -1 37 -1 37 -5 6 -5
-42 -30 -43 -37 -3 -6 30 -6 30 -3 -2z"/>
<path d="M341 161 c1 -28 3 -30 6 -11 3 14 9 30 14 36 5 7 3 11 -6 11 -11 0
-15 -11 -14 -36z"/>
<path d="M391 186 c-7 -8 -10 -24 -6 -36 7 -21 39 -27 51 -9 4 7 0 9 -14 5
-11 -4 -23 -2 -27 4 -4 6 4 10 20 10 20 0 26 4 23 17 -4 23 -31 28 -47 9z m34
-6 c3 -5 -3 -10 -15 -10 -12 0 -18 5 -15 10 3 6 10 10 15 10 5 0 12 -4 15 -10z"/>
<path d="M690 186 c-23 -28 17 -73 42 -48 8 8 5 9 -11 5 -12 -3 -21 -1 -21 6
0 6 9 11 21 11 14 0 19 5 17 17 -4 23 -31 28 -48 9z m40 -6 c0 -5 -7 -10 -15
-10 -8 0 -15 5 -15 10 0 6 7 10 15 10 8 0 15 -4 15 -10z"/>
<path d="M923 165 c0 -22 2 -30 4 -17 2 12 2 30 0 40 -3 9 -5 -1 -4 -23z"/>
<path d="M955 190 c-5 -9 -1 -10 14 -5 11 3 21 2 21 -3 0 -5 -9 -12 -21 -15
-29 -8 -18 -32 15 -33 24 -1 27 2 24 30 -2 23 -9 32 -25 34 -11 2 -24 -2 -28
-8z m40 -40 c-3 -5 -13 -10 -21 -10 -8 0 -14 5 -14 10 0 6 9 10 21 10 11 0 17
-4 14 -10z"/>
<path d="M1029 183 c-16 -18 1 -49 25 -47 10 1 15 -3 13 -10 -2 -6 -11 -10
-20 -10 -9 1 -14 -2 -11 -7 9 -14 31 -10 38 7 3 9 6 30 6 48 0 24 -5 32 -19
33 -11 1 -25 -5 -32 -14z m38 -9 c8 -21 -13 -42 -28 -27 -13 13 -5 43 11 43 6
0 13 -7 17 -16z"/>
<path d="M1101 161 c1 -28 3 -30 6 -11 3 14 9 30 14 36 5 7 3 11 -6 11 -11 0
-15 -11 -14 -36z"/>
<path d="M1144 189 c-4 -8 0 -9 15 -4 11 3 21 2 21 -3 0 -5 -9 -12 -21 -15
-28 -7 -19 -32 12 -33 22 -1 24 2 21 33 -3 24 -9 33 -23 33 -10 0 -21 -5 -25
-11z m36 -39 c0 -5 -7 -10 -15 -10 -8 0 -15 5 -15 10 0 6 7 10 15 10 8 0 15
-4 15 -10z"/>
<path d="M1211 162 l1 -37 9 33 c5 17 14 32 19 32 6 0 10 -15 11 -32 l1 -33 9
33 c5 17 14 32 19 32 5 0 11 -15 13 -32 l4 -33 1 36 2 36 -45 1 -45 1 1 -37z"/>
<path d="M1360 185 c-17 -21 -2 -50 26 -50 14 0 19 7 19 30 0 34 -24 45 -45
20z m37 -11 c8 -22 -15 -44 -26 -25 -10 16 -4 41 10 41 5 0 12 -7 16 -16z"/>
<path d="M1591 162 c1 -36 2 -36 8 -7 8 37 25 36 30 -2 l4 -28 6 30 c8 38 24
38 33 -1 6 -28 6 -27 5 6 -2 34 -3 35 -44 37 l-43 3 1 -38z"/>
<path d="M1700 186 c-23 -28 17 -73 42 -48 8 8 5 9 -11 5 -12 -3 -21 -1 -21 6
0 6 9 11 21 11 14 0 19 5 17 17 -4 23 -31 28 -48 9z m40 -6 c0 -5 -7 -10 -15
-10 -8 0 -15 5 -15 10 0 6 7 10 15 10 8 0 15 -4 15 -10z"/>
<path d="M1771 161 c1 -28 3 -30 6 -11 3 14 9 30 14 36 5 7 3 11 -6 11 -11 0
-15 -11 -14 -36z"/>
<path d="M1813 165 c0 -22 2 -30 4 -17 2 12 2 30 0 40 -3 9 -5 -1 -4 -23z"/>
<path d="M1847 193 c-4 -3 -7 -17 -7 -30 0 -26 25 -42 42 -25 7 7 4 10 -8 9
-13 -1 -19 5 -19 18 0 13 6 20 17 19 10 -1 15 2 12 7 -6 11 -28 12 -37 2z"/>
<path d="M1913 165 c0 -22 2 -30 4 -17 2 12 2 30 0 40 -3 9 -5 -1 -4 -23z"/>
<path d="M1933 170 c2 -30 6 -35 30 -38 25 -3 27 -1 26 35 -1 36 -2 37 -8 8
-3 -17 -13 -30 -21 -30 -8 0 -18 13 -22 30 -6 29 -6 29 -5 -5z"/>
<path d="M2012 162 l1 -37 4 33 c5 40 25 38 34 -4 l7 -29 1 33 c1 41 23 39 33
-4 6 -27 6 -27 5 6 -2 34 -3 35 -44 37 l-43 3 2 -38z"/>
<path d="M2281 162 c1 -35 2 -36 8 -8 9 43 31 45 32 4 l1 -33 7 29 c9 42 29
44 34 4 l4 -33 1 36 2 36 -45 1 -45 1 1 -37z"/>
<path d="M2476 191 c-3 -5 3 -7 14 -4 11 3 20 1 20 -5 0 -5 -9 -12 -20 -15
-32 -8 -25 -36 8 -35 27 1 28 3 23 32 -7 30 -33 47 -45 27z m29 -41 c-3 -5
-10 -10 -16 -10 -5 0 -9 5 -9 10 0 6 7 10 16 10 8 0 12 -4 9 -10z"/>
<path d="M2580 185 c-17 -21 -2 -50 26 -50 14 0 19 7 19 30 0 34 -24 45 -45
20z m37 -11 c8 -22 -15 -44 -26 -25 -10 16 -4 41 10 41 5 0 12 -7 16 -16z"/>
<path d="M2651 162 c1 -36 2 -36 8 -7 8 37 25 36 30 -2 l4 -28 6 30 c8 38 24
38 33 -1 6 -28 6 -27 5 6 -2 34 -3 35 -44 37 l-43 3 1 -38z"/>
</g>
</svg>
